<?xml version="1.0" encoding="UTF-8"?>
<svg width="372px" height="128px" viewBox="0 0 372 128" version="1.1" xmlns="http://www.w3.org/2000/svg" xmlns:xlink="http://www.w3.org/1999/xlink">
    <title>Group 7</title>
    <g id="Page-1" stroke="none" stroke-width="1" fill="none" fill-rule="evenodd">
        <g id="Group-7" fill="#000000" fill-rule="nonzero">
            <path d="M32.76,70 L32.76,69.856 C31.56,67.648 30.78,65.704 30.42,64.024 C30.06,62.344 29.88,59.992 29.88,56.968 L29.88,56.968 L29.88,18.52 L37.728,18.808 C38.352,18.856 39.048,19.156 39.816,19.708 C40.584,20.26 41.436,21.1 42.372,22.228 C43.308,23.356 44.124,24.376 44.82,25.288 C45.516,26.2 46.416,27.448 47.52,29.032 C48.624,30.616 49.416,31.72 49.896,32.344 L49.896,32.344 L50.472,32.128 L47.736,17.296 L3.744,17.296 L1.008,32.128 L1.584,32.344 C1.776,32.056 2.088,31.6 2.52,30.976 C4.056,28.768 5.376,26.92 6.48,25.432 C7.584,23.944 8.844,22.48 10.26,21.04 C11.676,19.6 12.84,18.856 13.752,18.808 L13.752,18.808 L21.6,18.52 L21.6,56.968 C21.6,59.896 21.408,62.224 21.024,63.952 C20.64,65.68 19.872,67.648 18.72,69.856 L18.72,69.856 L18.72,70 L32.76,70 Z M67.736,70 L67.736,69.856 C66.632,66.976 66.08,62.368 66.08,56.032 L66.08,56.032 L66.08,42.64 C68.432,40.192 71.096,38.968 74.072,38.968 C76.28,38.968 77.936,39.7 79.04,41.164 C80.144,42.628 80.696,44.464 80.696,46.672 L80.696,46.672 L80.696,56.032 C80.696,61.984 80.144,66.592 79.04,69.856 L79.04,69.856 L79.04,70 L89.48,70 L89.48,69.856 C88.76,68.032 88.316,66.184 88.148,64.312 C87.98,62.44 87.896,59.68 87.896,56.032 L87.896,45.016 C87.896,41.752 87.008,39.196 85.232,37.348 C83.456,35.5 80.936,34.576 77.672,34.576 C73.592,34.576 69.728,36.784 66.08,41.2 L66.08,41.2 L66.08,13.984 L55.64,17.728 L55.64,17.872 C57.8,20.32 58.88,23.44 58.88,27.232 L58.88,27.232 L58.88,56.032 C58.88,62.032 58.352,66.64 57.296,69.856 L57.296,69.856 L57.296,70 L67.736,70 Z M112.864,71.08 C116.464,71.08 119.488,70.096 121.936,68.128 C124.384,66.16 126.112,63.592 127.12,60.424 L127.12,60.424 L126.688,60.136 C124.048,63.352 120.664,64.96 116.536,64.96 C112.648,64.96 109.576,63.7 107.32,61.18 C105.064,58.66 103.936,54.928 103.936,49.984 L103.936,49.984 L103.936,48.616 L127.048,48.616 C127.24,45.256 126.004,42.076 123.34,39.076 C120.676,36.076 117.328,34.576 113.296,34.576 C109.072,34.576 105.244,36.352 101.812,39.904 C98.38,43.456 96.664,47.968 96.664,53.44 C96.664,58.528 98.176,62.74 101.2,66.076 C104.224,69.412 108.112,71.08 112.864,71.08 Z M104.08,47.464 C104.368,44.008 105.268,41.212 106.78,39.076 C108.292,36.94 110.368,35.872 113.008,35.872 C117.472,35.872 119.704,39.352 119.704,46.312 L119.704,46.312 L119.704,47.104 L104.08,47.464 Z M166.472,70.576 L181.448,32.632 L195.056,70.576 L196.496,70.576 L209.528,30.544 C211.304,24.832 213.656,20.464 216.584,17.44 L216.584,17.44 L216.584,17.296 L207.08,17.296 L207.08,17.44 C209.384,20.944 209.432,26.104 207.224,32.92 L207.224,32.92 L199.016,57.976 L188.936,29.392 C188.072,26.464 187.7,24.052 187.82,22.156 C187.94,20.26 188.36,18.688 189.08,17.44 L189.08,17.44 L189.08,17.296 L174.032,17.296 L174.032,17.44 C176.144,19.696 178.184,23.56 180.152,29.032 L180.152,29.032 L180.728,30.544 L169.568,58.552 L160.28,29.392 C158.648,24.256 158.696,20.272 160.424,17.44 L160.424,17.44 L160.424,17.296 L145.376,17.296 L145.376,17.44 C147.776,20.032 149.816,23.896 151.496,29.032 L151.496,29.032 L165.032,70.576 L166.472,70.576 Z M233.272,71.08 C238.312,71.08 242.656,69.28 246.304,65.68 C249.952,62.032 251.776,57.76 251.776,52.864 C251.776,48.016 249.94,43.756 246.268,40.084 C242.596,36.412 238.264,34.576 233.272,34.576 C228.328,34.576 224.02,36.412 220.348,40.084 C216.676,43.756 214.84,48.016 214.84,52.864 C214.84,57.76 216.652,62.02 220.276,65.644 C223.9,69.268 228.232,71.08 233.272,71.08 Z M233.272,69.64 C229.768,69.64 227.128,68.032 225.352,64.816 C223.624,61.6 222.76,57.616 222.76,52.864 C222.76,48.16 223.66,44.176 225.46,40.912 C227.26,37.648 229.864,36.016 233.272,36.016 C236.728,36.016 239.356,37.648 241.156,40.912 C242.956,44.176 243.856,48.16 243.856,52.864 C243.856,57.616 242.968,61.6 241.192,64.816 C239.416,68.032 236.776,69.64 233.272,69.64 Z M275.808,71.08 C280.848,71.08 285.192,69.28 288.84,65.68 C292.488,62.032 294.312,57.76 294.312,52.864 C294.312,48.016 292.476,43.756 288.804,40.084 C285.132,36.412 280.8,34.576 275.808,34.576 C270.864,34.576 266.556,36.412 262.884,40.084 C259.212,43.756 257.376,48.016 257.376,52.864 C257.376,57.76 259.188,62.02 262.812,65.644 C266.436,69.268 270.768,71.08 275.808,71.08 Z M275.808,69.64 C272.304,69.64 269.664,68.032 267.888,64.816 C266.16,61.6 265.296,57.616 265.296,52.864 C265.296,48.16 266.196,44.176 267.996,40.912 C269.796,37.648 272.4,36.016 275.808,36.016 C279.264,36.016 281.892,37.648 283.692,40.912 C285.492,44.176 286.392,48.16 286.392,52.864 C286.392,57.616 285.504,61.6 283.728,64.816 C281.952,68.032 279.312,69.64 275.808,69.64 Z M314.096,71.08 C316.88,71.08 319.34,70.384 321.476,68.992 C323.612,67.6 325.256,65.872 326.408,63.808 L326.408,63.808 L326.624,63.808 L326.624,70.864 L336.848,68.56 L336.848,68.416 C335.552,67.312 334.676,65.908 334.22,64.204 C333.764,62.5 333.536,59.32 333.536,54.664 L333.536,13.984 L323.096,17.8 L323.096,17.944 C325.256,20.392 326.336,23.512 326.336,27.304 L326.336,27.304 L326.336,35.872 C324.128,35.008 321.704,34.576 319.064,34.576 C313.16,34.576 308.552,36.484 305.24,40.3 C301.928,44.116 300.272,48.808 300.272,54.376 C300.272,59.224 301.532,63.22 304.052,66.364 C306.572,69.508 309.92,71.08 314.096,71.08 Z M317.84,66.256 C314.576,66.256 312.092,64.972 310.388,62.404 C308.684,59.836 307.832,56.344 307.832,51.928 C307.832,47.176 308.768,43.312 310.64,40.336 C312.512,37.36 315.008,35.872 318.128,35.872 C322.4,35.872 325.136,38.536 326.336,43.864 L326.336,43.864 L326.336,62.368 C324.128,64.96 321.296,66.256 317.84,66.256 Z M354.4,71.08 C358.384,71.08 361.624,70.204 364.12,68.452 C366.616,66.7 367.864,64.12 367.864,60.712 C367.864,57.64 366.952,55.252 365.128,53.548 C363.304,51.844 360.808,50.32 357.64,48.976 C355.576,48.16 354.016,47.5 352.96,46.996 C351.904,46.492 350.872,45.724 349.864,44.692 C348.856,43.66 348.352,42.496 348.352,41.2 C348.352,39.664 348.88,38.392 349.936,37.384 C350.992,36.376 352.432,35.872 354.256,35.872 C358.528,35.872 362.248,38.584 365.416,44.008 L365.416,44.008 L365.848,43.864 L365.128,36.016 C362.776,35.056 359.8,34.576 356.2,34.576 C352.648,34.576 349.672,35.368 347.272,36.952 C344.872,38.536 343.672,41.008 343.672,44.368 C343.672,45.52 343.792,46.576 344.032,47.536 C344.272,48.496 344.728,49.372 345.4,50.164 C346.072,50.956 346.624,51.592 347.056,52.072 C347.488,52.552 348.292,53.092 349.468,53.692 C350.644,54.292 351.412,54.688 351.772,54.88 C352.132,55.072 352.984,55.456 354.328,56.032 C357.016,57.184 358.96,58.3 360.16,59.38 C361.36,60.46 361.96,61.864 361.96,63.592 C361.96,65.272 361.408,66.724 360.304,67.948 C359.2,69.172 357.544,69.784 355.336,69.784 C353.032,69.784 350.944,69.004 349.072,67.444 C347.2,65.884 345.352,63.352 343.528,59.848 L343.528,59.848 L343.096,59.992 L343.816,69.208 C347.416,70.456 350.944,71.08 354.4,71.08 Z" id="TheWoods"></path>
            <path d="M147.108,119.54 C149.796,119.54 152.01,118.934 153.75,117.722 C155.49,116.51 156.36,114.656 156.36,112.16 C156.36,111.224 156.21,110.36 155.91,109.568 C155.61,108.776 155.25,108.116 154.83,107.588 C154.41,107.06 153.834,106.544 153.102,106.04 C152.37,105.536 151.722,105.14 151.158,104.852 C150.594,104.564 149.868,104.216 148.98,103.808 C148.116,103.424 147.54,103.16 147.252,103.016 C146.964,102.872 146.466,102.62 145.758,102.26 C145.05,101.9 144.558,101.588 144.282,101.324 C144.006,101.06 143.676,100.712 143.292,100.28 C142.908,99.848 142.644,99.392 142.5,98.912 C142.356,98.432 142.284,97.892 142.284,97.292 C142.284,95.996 142.698,94.928 143.526,94.088 C144.354,93.248 145.56,92.828 147.144,92.828 C150.216,92.828 152.592,94.88 154.272,98.984 L154.272,98.984 L154.56,98.876 L153.84,93.188 C151.968,92.468 150.024,92.108 148.008,92.108 C145.632,92.108 143.7,92.654 142.212,93.746 C140.724,94.838 139.98,96.464 139.98,98.624 C139.98,100.784 140.868,102.548 142.644,103.916 C143.436,104.54 145.02,105.416 147.396,106.544 C148.38,106.976 149.178,107.366 149.79,107.714 C150.402,108.062 151.044,108.512 151.716,109.064 C152.388,109.616 152.88,110.258 153.192,110.99 C153.504,111.722 153.66,112.556 153.66,113.492 C153.66,115.1 153.174,116.39 152.202,117.362 C151.23,118.334 149.82,118.82 147.972,118.82 C146.1,118.82 144.498,118.298 143.166,117.254 C141.834,116.21 140.628,114.536 139.548,112.232 L139.548,112.232 L139.26,112.34 L139.98,118.172 C142.356,119.084 144.732,119.54 147.108,119.54 Z M164.424,119.54 C165.744,119.54 166.854,119.198 167.754,118.514 C168.654,117.83 169.512,116.9 170.328,115.724 L170.328,115.724 L170.328,119.432 L174.396,118.28 L174.396,118.208 C173.964,117.944 173.646,117.698 173.442,117.47 C173.238,117.242 173.076,116.858 172.956,116.318 C172.836,115.778 172.776,115.016 172.776,114.032 L172.776,114.032 L172.776,101.864 L168.564,101.864 L168.564,101.936 C169.62,102.584 170.148,103.592 170.148,104.96 L170.148,104.96 L170.148,115.148 C169.044,116.684 167.592,117.452 165.792,117.452 C163.488,117.452 162.336,116.108 162.336,113.42 L162.336,113.42 L162.336,101.864 L158.196,101.864 L158.196,101.936 C159.204,102.632 159.708,103.64 159.708,104.96 L159.708,104.96 L159.708,113.996 C159.708,115.748 160.11,117.11 160.914,118.082 C161.718,119.054 162.888,119.54 164.424,119.54 Z M181.848,119 L181.848,118.928 C181.32,117.776 181.056,115.94 181.056,113.42 L181.056,113.42 L181.056,106.328 C181.536,105.704 182.04,105.176 182.568,104.744 C183.096,104.312 183.516,104.096 183.828,104.096 C184.236,104.096 184.746,104.18 185.358,104.348 C185.97,104.516 186.42,104.696 186.708,104.888 L186.708,104.888 L186.816,104.888 L186.852,101.324 C186.468,101.324 186.072,101.396 185.664,101.54 C185.256,101.684 184.908,101.84 184.62,102.008 C184.332,102.176 183.996,102.44 183.612,102.8 C183.228,103.16 182.94,103.442 182.748,103.646 C182.556,103.85 182.262,104.186 181.866,104.654 C181.47,105.122 181.212,105.416 181.092,105.536 L181.092,105.536 L180.912,105.5 L180.912,101.144 L176.844,103.052 L176.844,103.124 C177.9,104.036 178.428,105.236 178.428,106.724 L178.428,106.724 L178.428,113.456 C178.428,115.904 178.164,117.728 177.636,118.928 L177.636,118.928 L177.636,119 L181.848,119 Z M193.764,119 L193.764,118.928 C193.236,117.776 192.972,115.94 192.972,113.42 L192.972,113.42 L192.972,106.328 C193.452,105.704 193.956,105.176 194.484,104.744 C195.012,104.312 195.432,104.096 195.744,104.096 C196.152,104.096 196.662,104.18 197.274,104.348 C197.886,104.516 198.336,104.696 198.624,104.888 L198.624,104.888 L198.732,104.888 L198.768,101.324 C198.384,101.324 197.988,101.396 197.58,101.54 C197.172,101.684 196.824,101.84 196.536,102.008 C196.248,102.176 195.912,102.44 195.528,102.8 C195.144,103.16 194.856,103.442 194.664,103.646 C194.472,103.85 194.178,104.186 193.782,104.654 C193.386,105.122 193.128,105.416 193.008,105.536 L193.008,105.536 L192.828,105.5 L192.828,101.144 L188.76,103.052 L188.76,103.124 C189.816,104.036 190.344,105.236 190.344,106.724 L190.344,106.724 L190.344,113.456 C190.344,115.904 190.08,117.728 189.552,118.928 L189.552,118.928 L189.552,119 L193.764,119 Z M208.668,119.54 C210.396,119.54 211.866,119.09 213.078,118.19 C214.29,117.29 215.124,116.108 215.58,114.644 L215.58,114.644 L215.4,114.536 C214.176,116.336 212.328,117.236 209.856,117.236 C207.84,117.236 206.274,116.558 205.158,115.202 C204.042,113.846 203.484,111.944 203.484,109.496 L203.484,109.496 L203.484,108.884 C203.484,108.596 203.496,108.392 203.52,108.272 L203.52,108.272 L215.508,108.272 C215.652,106.52 215.094,104.924 213.834,103.484 C212.574,102.044 210.936,101.324 208.92,101.324 C206.736,101.324 204.828,102.2 203.196,103.952 C201.564,105.704 200.748,107.96 200.748,110.72 C200.748,113.336 201.474,115.46 202.926,117.092 C204.378,118.724 206.292,119.54 208.668,119.54 Z M203.592,107.696 C203.832,105.944 204.402,104.552 205.302,103.52 C206.202,102.488 207.36,101.972 208.776,101.972 C211.32,101.972 212.592,103.724 212.592,107.228 L212.592,107.228 L212.592,107.516 L203.592,107.696 Z M217.812,127.1 C219.132,126.956 220.26,126.464 221.196,125.624 C222.132,124.784 222.984,123.368 223.752,121.376 L223.752,121.376 L229.692,106.004 C230.076,104.948 230.436,104.138 230.772,103.574 C231.108,103.01 231.564,102.464 232.14,101.936 L232.14,101.936 L232.14,101.864 L228.36,101.864 L228.36,101.936 C229.416,102.776 229.572,104.204 228.828,106.22 L228.828,106.22 L225.336,115.508 L221.808,106.076 C221.064,104.156 221.076,102.776 221.844,101.936 L221.844,101.936 L221.844,101.864 L216.768,101.864 L216.768,101.936 C217.2,102.296 217.548,102.734 217.812,103.25 C218.076,103.766 218.448,104.636 218.928,105.86 L218.928,105.86 L223.968,119.108 L223.464,120.44 C223.056,121.496 222.45,122.348 221.646,122.996 C220.842,123.644 220.134,124.046 219.522,124.202 C218.91,124.358 218.316,124.436 217.74,124.436 L217.74,124.436 L217.812,127.1 Z" id="Surrey"></path>
        </g>
    </g>
</svg>